<?xml version="1.0" encoding="UTF-8"?>
<svg xmlns="http://www.w3.org/2000/svg" xmlns:xlink="http://www.w3.org/1999/xlink" width="207pt" height="55pt" viewBox="0 0 207 55" version="1.1">
<g id="surface1">
<path style=" stroke:none;fill-rule:nonzero;fill:rgb(0%,32.941176%,56.078431%);fill-opacity:1;" d="M 0 22.882812 L 0 1.089844 L 4.253906 1.089844 L 4.253906 22.882812 Z M 0 22.882812 "/>
<path style=" stroke:none;fill-rule:nonzero;fill:rgb(0%,32.941176%,56.078431%);fill-opacity:1;" d="M 10.503906 9.152344 L 10.566406 9.152344 C 11.589844 7.753906 13.550781 6.945312 15.335938 6.945312 C 17.234375 6.945312 18.863281 7.71875 19.773438 9.152344 C 21.042969 7.90625 23 6.972656 24.785156 6.945312 C 28.191406 6.910156 29.976562 9.0625 30.039062 12.640625 L 30.039062 22.851562 L 26.019531 22.851562 L 26.019531 13.390625 C 26.019531 11.582031 25.417969 9.714844 23.425781 9.714844 C 21.492188 9.714844 20.285156 10.894531 20.285156 13.601562 L 20.285156 22.882812 L 16.269531 22.882812 L 16.269531 13.390625 C 16.269531 11.210938 15.335938 9.714844 13.617188 9.714844 C 11.710938 9.714844 10.535156 11.054688 10.535156 13.695312 L 10.535156 22.882812 L 6.519531 22.882812 L 6.519531 7.316406 L 10.503906 7.316406 Z M 10.503906 9.152344 "/>
<path style=" stroke:none;fill-rule:nonzero;fill:rgb(0%,32.941176%,56.078431%);fill-opacity:1;" d="M 40.136719 9.433594 C 42.425781 9.433594 43.578125 12.109375 43.578125 14.789062 C 43.578125 17.527344 42.671875 20.765625 39.988281 20.765625 C 37.808594 20.765625 36.273438 18.554688 36.273438 15.285156 C 36.273438 11.707031 37.601562 9.433594 40.136719 9.433594 Z M 36.273438 7.316406 L 32.257812 7.316406 L 32.257812 30.667969 L 36.273438 30.667969 L 36.273438 20.953125 C 37.390625 22.324219 38.957031 23.253906 40.792969 23.253906 C 45.113281 23.253906 47.832031 18.867188 47.832031 14.757812 C 47.832031 11.332031 45.898438 6.945312 41.160156 6.945312 C 39.351562 6.945312 37.390625 7.878906 36.332031 9.464844 L 36.273438 9.464844 Z M 36.273438 7.316406 "/>
<path style=" stroke:none;fill-rule:nonzero;fill:rgb(0%,32.941176%,56.078431%);fill-opacity:1;" d="M 53.585938 13.230469 C 53.554688 11.148438 54.582031 9.246094 56.878906 9.246094 C 58.863281 9.246094 59.683594 10.867188 59.53125 13.230469 Z M 63.308594 15.472656 C 63.609375 10.835938 61.648438 6.945312 56.9375 6.945312 C 52.617188 6.945312 49.238281 9.996094 49.238281 14.789062 C 49.238281 19.925781 52.648438 23.253906 57.207031 23.253906 C 58.929688 23.253906 61.074219 22.753906 63.125 21.515625 L 61.976562 19.335938 C 60.984375 20.046875 59.410156 20.582031 57.929688 20.582031 C 55.425781 20.582031 53.4375 18.398438 53.527344 15.46875 L 63.308594 15.46875 Z M 63.308594 15.472656 "/>
<path style=" stroke:none;fill-rule:nonzero;fill:rgb(0%,32.941176%,56.078431%);fill-opacity:1;" d="M 69.230469 10.054688 L 69.292969 10.054688 L 70.105469 8.839844 C 70.585938 8.1875 71.464844 6.945312 72.703125 6.945312 C 73.605469 6.945312 74.570312 7.441406 75.417969 8.34375 L 73.910156 11.210938 C 73.246094 10.867188 72.824219 10.679688 72.007812 10.679688 C 70.621094 10.679688 69.261719 11.828125 69.261719 15.191406 L 69.261719 22.882812 L 65.242188 22.882812 L 65.242188 7.316406 L 69.230469 7.316406 Z M 69.230469 10.054688 "/>
<path style=" stroke:none;fill-rule:nonzero;fill:rgb(0%,32.941176%,56.078431%);fill-opacity:1;" d="M 80.71875 7.316406 L 80.71875 22.882812 L 76.707031 22.882812 L 76.707031 7.316406 Z M 76.3125 2.648438 C 76.3125 1.460938 77.28125 0.25 78.636719 0.25 C 80.027344 0.25 81.113281 1.433594 81.113281 2.648438 C 81.113281 3.984375 80.175781 5.261719 78.695312 5.261719 C 77.28125 5.261719 76.3125 3.984375 76.3125 2.648438 Z M 76.3125 2.648438 "/>
<path style=" stroke:none;fill-rule:nonzero;fill:rgb(0%,32.941176%,56.078431%);fill-opacity:1;" d="M 91.621094 13.855469 C 91.921875 18.429688 89.84375 20.488281 88.246094 20.488281 C 87.277344 20.488281 86.429688 19.554688 86.429688 18.179688 C 86.429688 16.40625 87.429688 15.226562 89.386719 14.601562 Z M 91.566406 20.609375 C 91.566406 21.449219 91.65625 22.355469 91.953125 22.882812 L 96.210938 22.882812 C 95.726562 21.792969 95.578125 20.328125 95.578125 19.085938 L 95.578125 12.734375 C 95.578125 7.878906 92.167969 6.945312 89.390625 6.945312 C 87.304688 6.945312 85.46875 7.472656 83.59375 9.0625 L 84.890625 11.023438 C 85.945312 10.085938 87.15625 9.433594 88.878906 9.433594 C 90.175781 9.433594 91.414062 10.335938 91.625 11.769531 L 88.0625 12.855469 C 84.558594 13.882812 82.476562 15.566406 82.476562 18.527344 C 82.476562 21.386719 84.4375 23.253906 86.792969 23.253906 C 88.179688 23.253906 89.542969 22.289062 90.660156 21.386719 Z M 91.566406 20.609375 "/>
<path style=" stroke:none;fill-rule:nonzero;fill:rgb(0%,32.941176%,56.078431%);fill-opacity:1;" d="M 98.085938 22.882812 L 98.085938 0 L 102.097656 0 L 102.097656 22.882812 Z M 98.085938 22.882812 "/>
<path style=" stroke:none;fill-rule:nonzero;fill:rgb(0%,32.941176%,56.078431%);fill-opacity:1;" d="M 128.59375 5.042969 C 127.5625 4.480469 125.847656 3.828125 124.210938 3.828125 C 119.867188 3.828125 116.726562 6.972656 116.726562 11.921875 C 116.726562 17.09375 120.203125 20.140625 124.335938 20.140625 C 125.964844 20.140625 127.472656 19.675781 128.59375 19.054688 L 129.769531 21.761719 C 128.46875 22.542969 126.207031 23.253906 124.15625 23.253906 C 116.816406 23.253906 112.195312 18.273438 112.195312 11.863281 C 112.195312 5.917969 116.789062 0.714844 124.210938 0.714844 C 126.417969 0.714844 128.46875 1.527344 129.917969 2.398438 Z M 128.59375 5.042969 "/>
<path style=" stroke:none;fill-rule:nonzero;fill:rgb(0%,32.941176%,56.078431%);fill-opacity:1;" d="M 137.738281 20.953125 C 134.867188 20.953125 134.085938 17.652344 134.085938 14.910156 C 134.085938 12.328125 134.984375 9.246094 137.738281 9.246094 C 140.542969 9.246094 141.417969 12.328125 141.417969 14.910156 C 141.417969 17.652344 140.664062 20.953125 137.738281 20.953125 Z M 137.738281 23.253906 C 142.476562 23.253906 145.675781 19.742188 145.675781 14.910156 C 145.675781 9.867188 141.808594 6.945312 137.738281 6.945312 C 133.691406 6.945312 129.824219 9.867188 129.824219 14.910156 C 129.824219 19.742188 133.027344 23.253906 137.738281 23.253906 Z M 137.738281 23.253906 "/>
<path style=" stroke:none;fill-rule:nonzero;fill:rgb(0%,32.941176%,56.078431%);fill-opacity:1;" d="M 147.402344 22.882812 L 147.402344 0 L 151.421875 0 L 151.421875 22.882812 Z M 147.402344 22.882812 "/>
<path style=" stroke:none;fill-rule:nonzero;fill:rgb(0%,32.941176%,56.078431%);fill-opacity:1;" d="M 153.953125 22.882812 L 153.953125 0 L 157.964844 0 L 157.964844 22.882812 Z M 153.953125 22.882812 "/>
<path style=" stroke:none;fill-rule:nonzero;fill:rgb(0%,32.941176%,56.078431%);fill-opacity:1;" d="M 163.980469 13.230469 C 163.949219 11.148438 164.976562 9.246094 167.269531 9.246094 C 169.265625 9.246094 170.082031 10.867188 169.929688 13.230469 Z M 173.703125 15.472656 C 174.003906 10.835938 172.042969 6.945312 167.332031 6.945312 C 163.019531 6.945312 159.628906 9.996094 159.628906 14.789062 C 159.628906 19.925781 163.042969 23.253906 167.605469 23.253906 C 169.324219 23.253906 171.464844 22.753906 173.519531 21.515625 L 172.375 19.335938 C 171.378906 20.046875 169.808594 20.582031 168.328125 20.582031 C 165.824219 20.582031 163.828125 18.398438 163.921875 15.46875 L 173.703125 15.46875 Z M 173.703125 15.472656 "/>
<path style=" stroke:none;fill-rule:nonzero;fill:rgb(0%,32.941176%,56.078431%);fill-opacity:1;" d="M 196.773438 13.230469 C 196.742188 11.148438 197.765625 9.246094 200.0625 9.246094 C 202.050781 9.246094 202.871094 10.867188 202.71875 13.230469 Z M 206.492188 15.472656 C 206.789062 10.835938 204.832031 6.945312 200.121094 6.945312 C 195.804688 6.945312 192.421875 9.996094 192.421875 14.789062 C 192.421875 19.925781 195.832031 23.253906 200.394531 23.253906 C 202.113281 23.253906 204.257812 22.753906 206.308594 21.515625 L 205.164062 19.335938 C 204.164062 20.046875 202.597656 20.582031 201.121094 20.582031 C 198.609375 20.582031 196.625 18.398438 196.710938 15.46875 L 206.492188 15.46875 Z M 206.492188 15.472656 "/>
<path style=" stroke:none;fill-rule:nonzero;fill:rgb(0%,32.941176%,56.078431%);fill-opacity:1;" d="M 183.089844 9.433594 C 185.503906 9.433594 186.742188 11.957031 186.742188 14.664062 C 186.742188 17.777344 185.589844 20.765625 182.902344 20.765625 C 180.578125 20.765625 179.4375 17.839844 179.4375 14.816406 C 179.4375 11.800781 180.488281 9.433594 183.089844 9.433594 Z M 190.753906 7.316406 L 186.742188 7.316406 L 186.742188 9.214844 L 186.679688 9.214844 C 185.835938 7.8125 184.023438 6.945312 182.179688 6.945312 C 178.074219 6.945312 175.175781 10.867188 175.175781 14.910156 C 175.175781 19.894531 177.804688 23.253906 181.820312 23.253906 C 184.117188 23.253906 185.683594 21.949219 186.679688 20.640625 L 186.742188 20.640625 L 186.742188 22.695312 C 186.742188 26.304688 184.683594 27.984375 182.027344 27.984375 C 179.976562 27.984375 178.253906 27.582031 176.777344 26.652344 L 175.992188 29.199219 C 177.777344 30.132812 180.070312 30.667969 182.332031 30.667969 C 186.832031 30.667969 190.753906 28.390625 190.753906 21.480469 Z M 190.753906 7.316406 "/>
<path style=" stroke:none;fill-rule:nonzero;fill:rgb(32.941176%,61.568627%,77.254902%);fill-opacity:1;" d="M 0 32.222656 L 4.289062 32.222656 L 4.289062 51.085938 L 13.3125 51.085938 L 13.3125 54.011719 L 0 54.011719 Z M 0 32.222656 "/>
<path style=" stroke:none;fill-rule:nonzero;fill:rgb(32.941176%,61.568627%,77.254902%);fill-opacity:1;" d="M 36.871094 40.28125 C 38.300781 38.792969 40.300781 38.070312 42.300781 38.070312 C 46.019531 38.070312 47.800781 40.066406 47.800781 43.988281 L 47.800781 54.011719 L 43.761719 54.011719 L 43.761719 44.457031 C 43.761719 42.277344 42.777344 40.847656 40.585938 40.847656 C 38.519531 40.847656 36.902344 42.179688 36.902344 44.734375 L 36.902344 54.011719 L 32.867188 54.011719 L 32.867188 38.449219 L 36.871094 38.449219 Z M 36.871094 40.28125 "/>
<path style=" stroke:none;fill-rule:nonzero;fill:rgb(32.941176%,61.568627%,77.254902%);fill-opacity:1;" d="M 58.25 40.566406 C 60.792969 40.566406 62.09375 43.089844 62.09375 45.796875 C 62.09375 48.910156 60.886719 51.894531 58.058594 51.894531 C 55.613281 51.894531 54.40625 48.972656 54.40625 45.949219 C 54.40625 42.929688 55.519531 40.566406 58.25 40.566406 Z M 62.09375 54.011719 L 66.128906 54.011719 L 66.128906 31.136719 L 62.09375 31.136719 L 62.09375 40.253906 L 62.027344 40.253906 C 61.078125 38.878906 59.234375 38.070312 57.171875 38.070312 C 52.910156 38.070312 49.925781 41.996094 49.925781 46.042969 C 49.925781 51.019531 52.691406 54.382812 56.851562 54.382812 C 59.328125 54.382812 60.980469 53.074219 62.027344 51.769531 L 62.09375 51.769531 Z M 62.09375 54.011719 "/>
<path style=" stroke:none;fill-rule:nonzero;fill:rgb(32.941176%,61.568627%,77.254902%);fill-opacity:1;" d="M 76.613281 52.082031 C 73.597656 52.082031 72.769531 48.78125 72.769531 46.042969 C 72.769531 43.457031 73.71875 40.378906 76.613281 40.378906 C 79.574219 40.378906 80.488281 43.457031 80.488281 46.042969 C 80.488281 48.78125 79.695312 52.082031 76.613281 52.082031 Z M 76.613281 54.382812 C 81.601562 54.382812 84.96875 50.867188 84.96875 46.042969 C 84.96875 41.003906 80.902344 38.070312 76.613281 38.070312 C 72.355469 38.070312 68.289062 41.003906 68.289062 46.042969 C 68.289062 50.867188 71.65625 54.382812 76.613281 54.382812 Z M 76.613281 54.382812 "/>
<path style=" stroke:none;fill-rule:nonzero;fill:rgb(32.941176%,61.568627%,77.254902%);fill-opacity:1;" d="M 91.167969 40.28125 C 92.597656 38.792969 94.597656 38.070312 96.597656 38.070312 C 100.3125 38.070312 102.09375 40.066406 102.09375 43.988281 L 102.09375 54.011719 L 98.058594 54.011719 L 98.058594 44.457031 C 98.058594 42.277344 97.074219 40.847656 94.882812 40.847656 C 92.820312 40.847656 91.195312 42.179688 91.195312 44.734375 L 91.195312 54.011719 L 87.160156 54.011719 L 87.160156 38.449219 L 91.167969 38.449219 Z M 91.167969 40.28125 "/>
<path style=" stroke:none;fill-rule:nonzero;fill:rgb(32.941176%,61.568627%,77.254902%);fill-opacity:1;" d="M 22.25 52.082031 C 19.230469 52.082031 18.40625 48.78125 18.40625 46.042969 C 18.40625 43.457031 19.355469 40.378906 22.25 40.378906 C 25.203125 40.378906 26.125 43.457031 26.125 46.042969 C 26.125 48.78125 25.328125 52.082031 22.25 52.082031 Z M 22.25 54.382812 C 27.234375 54.382812 30.605469 50.867188 30.605469 46.042969 C 30.605469 41.003906 26.539062 38.070312 22.25 38.070312 C 17.988281 38.070312 13.925781 41.003906 13.925781 46.042969 C 13.925781 50.867188 17.292969 54.382812 22.25 54.382812 Z M 22.25 54.382812 "/>
</g>
</svg>
