<?xml version="1.0" encoding="UTF-8"?>
<svg xmlns="http://www.w3.org/2000/svg" xmlns:xlink="http://www.w3.org/1999/xlink" width="148pt" height="40pt" viewBox="0 0 148 40" version="1.1">
<g id="surface1">
<path style=" stroke:none;fill-rule:nonzero;fill:rgb(0%,32.941176%,56.078431%);fill-opacity:1;" d="M 0 16.503906 L 0 0.785156 L 3.042969 0.785156 L 3.042969 16.503906 Z M 0 16.503906 "/>
<path style=" stroke:none;fill-rule:nonzero;fill:rgb(0%,32.941176%,56.078431%);fill-opacity:1;" d="M 7.511719 6.601562 L 7.558594 6.601562 C 8.289062 5.589844 9.691406 5.007812 10.96875 5.007812 C 12.324219 5.007812 13.488281 5.566406 14.140625 6.601562 C 15.050781 5.703125 16.449219 5.027344 17.726562 5.007812 C 20.164062 4.984375 21.4375 6.535156 21.480469 9.117188 L 21.480469 16.480469 L 18.609375 16.480469 L 18.609375 9.65625 C 18.609375 8.355469 18.179688 7.007812 16.753906 7.007812 C 15.371094 7.007812 14.507812 7.859375 14.507812 9.808594 L 14.507812 16.503906 L 11.632812 16.503906 L 11.632812 9.65625 C 11.632812 8.085938 10.96875 7.007812 9.738281 7.007812 C 8.378906 7.007812 7.535156 7.976562 7.535156 9.878906 L 7.535156 16.503906 L 4.664062 16.503906 L 4.664062 5.277344 L 7.511719 5.277344 Z M 7.511719 6.601562 "/>
<path style=" stroke:none;fill-rule:nonzero;fill:rgb(0%,32.941176%,56.078431%);fill-opacity:1;" d="M 28.703125 6.804688 C 30.339844 6.804688 31.167969 8.734375 31.167969 10.667969 C 31.167969 12.640625 30.515625 14.976562 28.597656 14.976562 C 27.039062 14.976562 25.941406 13.382812 25.941406 11.023438 C 25.941406 8.445312 26.894531 6.804688 28.703125 6.804688 Z M 25.941406 5.277344 L 23.070312 5.277344 L 23.070312 22.121094 L 25.941406 22.121094 L 25.941406 15.113281 C 26.742188 16.101562 27.859375 16.773438 29.171875 16.773438 C 32.265625 16.773438 34.210938 13.609375 34.210938 10.644531 C 34.210938 8.175781 32.824219 5.007812 29.4375 5.007812 C 28.144531 5.007812 26.742188 5.683594 25.984375 6.824219 L 25.941406 6.824219 Z M 25.941406 5.277344 "/>
<path style=" stroke:none;fill-rule:nonzero;fill:rgb(0%,32.941176%,56.078431%);fill-opacity:1;" d="M 38.324219 9.542969 C 38.300781 8.039062 39.035156 6.667969 40.675781 6.667969 C 42.097656 6.667969 42.683594 7.835938 42.574219 9.542969 Z M 45.277344 11.160156 C 45.492188 7.816406 44.089844 5.007812 40.71875 5.007812 C 37.632812 5.007812 35.210938 7.207031 35.210938 10.667969 C 35.210938 14.375 37.652344 16.773438 40.914062 16.773438 C 42.144531 16.773438 43.679688 16.414062 45.144531 15.519531 L 44.324219 13.945312 C 43.613281 14.460938 42.488281 14.84375 41.429688 14.84375 C 39.636719 14.84375 38.21875 13.269531 38.28125 11.15625 L 45.277344 11.15625 Z M 45.277344 11.160156 "/>
<path style=" stroke:none;fill-rule:nonzero;fill:rgb(0%,32.941176%,56.078431%);fill-opacity:1;" d="M 49.511719 7.25 L 49.558594 7.25 L 50.136719 6.375 C 50.480469 5.90625 51.109375 5.007812 51.996094 5.007812 C 52.640625 5.007812 53.328125 5.367188 53.9375 6.019531 L 52.859375 8.085938 C 52.382812 7.835938 52.082031 7.703125 51.5 7.703125 C 50.507812 7.703125 49.53125 8.53125 49.53125 10.957031 L 49.53125 16.503906 L 46.660156 16.503906 L 46.660156 5.277344 L 49.511719 5.277344 Z M 49.511719 7.25 "/>
<path style=" stroke:none;fill-rule:nonzero;fill:rgb(0%,32.941176%,56.078431%);fill-opacity:1;" d="M 57.726562 5.277344 L 57.726562 16.503906 L 54.855469 16.503906 L 54.855469 5.277344 Z M 54.578125 1.910156 C 54.578125 1.050781 55.269531 0.179688 56.238281 0.179688 C 57.234375 0.179688 58.011719 1.035156 58.011719 1.910156 C 58.011719 2.875 57.339844 3.792969 56.28125 3.792969 C 55.269531 3.792969 54.578125 2.875 54.578125 1.910156 Z M 54.578125 1.910156 "/>
<path style=" stroke:none;fill-rule:nonzero;fill:rgb(0%,32.941176%,56.078431%);fill-opacity:1;" d="M 65.523438 9.992188 C 65.738281 13.292969 64.253906 14.777344 63.113281 14.777344 C 62.417969 14.777344 61.8125 14.105469 61.8125 13.109375 C 61.8125 11.835938 62.527344 10.980469 63.929688 10.53125 Z M 65.484375 14.867188 C 65.484375 15.46875 65.550781 16.125 65.761719 16.503906 L 68.808594 16.503906 C 68.460938 15.71875 68.355469 14.664062 68.355469 13.765625 L 68.355469 9.183594 C 68.355469 5.683594 65.917969 5.007812 63.929688 5.007812 C 62.441406 5.007812 61.125 5.390625 59.78125 6.535156 L 60.710938 7.949219 C 61.464844 7.273438 62.332031 6.804688 63.566406 6.804688 C 64.492188 6.804688 65.378906 7.453125 65.527344 8.488281 L 62.980469 9.273438 C 60.472656 10.015625 58.984375 11.226562 58.984375 13.363281 C 58.984375 15.425781 60.386719 16.773438 62.074219 16.773438 C 63.066406 16.773438 64.039062 16.078125 64.835938 15.425781 Z M 65.484375 14.867188 "/>
<path style=" stroke:none;fill-rule:nonzero;fill:rgb(0%,32.941176%,56.078431%);fill-opacity:1;" d="M 70.148438 16.503906 L 70.148438 0 L 73.015625 0 L 73.015625 16.503906 Z M 70.148438 16.503906 "/>
<path style=" stroke:none;fill-rule:nonzero;fill:rgb(0%,32.941176%,56.078431%);fill-opacity:1;" d="M 91.96875 3.636719 C 91.230469 3.230469 90 2.757812 88.832031 2.757812 C 85.726562 2.757812 83.480469 5.027344 83.480469 8.597656 C 83.480469 12.328125 85.96875 14.527344 88.921875 14.527344 C 90.085938 14.527344 91.167969 14.191406 91.96875 13.746094 L 92.808594 15.699219 C 91.878906 16.261719 90.261719 16.773438 88.792969 16.773438 C 83.542969 16.773438 80.238281 13.179688 80.238281 8.558594 C 80.238281 4.269531 83.527344 0.515625 88.832031 0.515625 C 90.410156 0.515625 91.878906 1.101562 92.914062 1.730469 Z M 91.96875 3.636719 "/>
<path style=" stroke:none;fill-rule:nonzero;fill:rgb(0%,32.941176%,56.078431%);fill-opacity:1;" d="M 98.507812 15.113281 C 96.453125 15.113281 95.894531 12.730469 95.894531 10.753906 C 95.894531 8.890625 96.539062 6.667969 98.507812 6.667969 C 100.515625 6.667969 101.140625 8.890625 101.140625 10.753906 C 101.140625 12.730469 100.601562 15.113281 98.507812 15.113281 Z M 98.507812 16.773438 C 101.894531 16.773438 104.183594 14.238281 104.183594 10.753906 C 104.183594 7.117188 101.417969 5.007812 98.507812 5.007812 C 95.613281 5.007812 92.84375 7.117188 92.84375 10.753906 C 92.84375 14.238281 95.140625 16.773438 98.507812 16.773438 Z M 98.507812 16.773438 "/>
<path style=" stroke:none;fill-rule:nonzero;fill:rgb(0%,32.941176%,56.078431%);fill-opacity:1;" d="M 105.417969 16.503906 L 105.417969 0 L 108.292969 0 L 108.292969 16.503906 Z M 105.417969 16.503906 "/>
<path style=" stroke:none;fill-rule:nonzero;fill:rgb(0%,32.941176%,56.078431%);fill-opacity:1;" d="M 110.101562 16.503906 L 110.101562 0 L 112.972656 0 L 112.972656 16.503906 Z M 110.101562 16.503906 "/>
<path style=" stroke:none;fill-rule:nonzero;fill:rgb(0%,32.941176%,56.078431%);fill-opacity:1;" d="M 117.273438 9.542969 C 117.253906 8.039062 117.988281 6.667969 119.625 6.667969 C 121.054688 6.667969 121.640625 7.835938 121.527344 9.542969 Z M 124.230469 11.160156 C 124.445312 7.816406 123.042969 5.007812 119.671875 5.007812 C 116.589844 5.007812 114.160156 7.207031 114.160156 10.667969 C 114.160156 14.375 116.601562 16.773438 119.867188 16.773438 C 121.097656 16.773438 122.628906 16.414062 124.09375 15.519531 L 123.28125 13.945312 C 122.566406 14.460938 121.441406 14.84375 120.386719 14.84375 C 118.59375 14.84375 117.167969 13.269531 117.230469 11.15625 L 124.230469 11.15625 Z M 124.230469 11.160156 "/>
<path style=" stroke:none;fill-rule:nonzero;fill:rgb(0%,32.941176%,56.078431%);fill-opacity:1;" d="M 140.726562 9.542969 C 140.707031 8.039062 141.4375 6.667969 143.078125 6.667969 C 144.503906 6.667969 145.089844 7.835938 144.980469 9.542969 Z M 147.675781 11.160156 C 147.890625 7.816406 146.492188 5.007812 143.121094 5.007812 C 140.035156 5.007812 137.613281 7.207031 137.613281 10.667969 C 137.613281 14.375 140.054688 16.773438 143.316406 16.773438 C 144.546875 16.773438 146.082031 16.414062 147.546875 15.519531 L 146.726562 13.945312 C 146.011719 14.460938 144.894531 14.84375 143.835938 14.84375 C 142.039062 14.84375 140.621094 13.269531 140.683594 11.15625 L 147.675781 11.15625 Z M 147.675781 11.160156 "/>
<path style=" stroke:none;fill-rule:nonzero;fill:rgb(0%,32.941176%,56.078431%);fill-opacity:1;" d="M 130.941406 6.804688 C 132.667969 6.804688 133.554688 8.621094 133.554688 10.574219 C 133.554688 12.820312 132.726562 14.976562 130.808594 14.976562 C 129.144531 14.976562 128.332031 12.867188 128.332031 10.6875 C 128.332031 8.511719 129.082031 6.804688 130.941406 6.804688 Z M 136.425781 5.277344 L 133.554688 5.277344 L 133.554688 6.648438 L 133.507812 6.648438 C 132.902344 5.636719 131.609375 5.007812 130.289062 5.007812 C 127.351562 5.007812 125.28125 7.835938 125.28125 10.753906 C 125.28125 14.347656 127.164062 16.773438 130.03125 16.773438 C 131.675781 16.773438 132.796875 15.832031 133.507812 14.886719 L 133.554688 14.886719 L 133.554688 16.371094 C 133.554688 18.972656 132.082031 20.1875 130.183594 20.1875 C 128.714844 20.1875 127.480469 19.894531 126.425781 19.222656 L 125.863281 21.0625 C 127.140625 21.734375 128.78125 22.121094 130.398438 22.121094 C 133.617188 22.121094 136.425781 20.480469 136.425781 15.496094 Z M 136.425781 5.277344 "/>
<path style=" stroke:none;fill-rule:nonzero;fill:rgb(32.941176%,61.568627%,77.254902%);fill-opacity:1;" d="M 0 23.242188 L 3.066406 23.242188 L 3.066406 36.847656 L 9.519531 36.847656 L 9.519531 38.957031 L 0 38.957031 Z M 0 23.242188 "/>
<path style=" stroke:none;fill-rule:nonzero;fill:rgb(32.941176%,61.568627%,77.254902%);fill-opacity:1;" d="M 26.367188 29.054688 C 27.394531 27.980469 28.824219 27.460938 30.25 27.460938 C 32.910156 27.460938 34.183594 28.898438 34.183594 31.726562 L 34.183594 38.957031 L 31.296875 38.957031 L 31.296875 32.066406 C 31.296875 30.492188 30.59375 29.464844 29.023438 29.464844 C 27.546875 29.464844 26.394531 30.421875 26.394531 32.265625 L 26.394531 38.957031 L 23.507812 38.957031 L 23.507812 27.734375 L 26.367188 27.734375 Z M 26.367188 29.054688 "/>
<path style=" stroke:none;fill-rule:nonzero;fill:rgb(32.941176%,61.568627%,77.254902%);fill-opacity:1;" d="M 41.660156 29.261719 C 43.476562 29.261719 44.410156 31.078125 44.410156 33.03125 C 44.410156 35.277344 43.546875 37.429688 41.523438 37.429688 C 39.773438 37.429688 38.910156 35.324219 38.910156 33.140625 C 38.910156 30.964844 39.707031 29.261719 41.660156 29.261719 Z M 44.410156 38.957031 L 47.292969 38.957031 L 47.292969 22.457031 L 44.410156 22.457031 L 44.410156 29.03125 L 44.359375 29.03125 C 43.683594 28.042969 42.363281 27.460938 40.890625 27.460938 C 37.839844 27.460938 35.703125 30.292969 35.703125 33.210938 C 35.703125 36.796875 37.683594 39.226562 40.660156 39.226562 C 42.429688 39.226562 43.609375 38.28125 44.359375 37.339844 L 44.410156 37.339844 Z M 44.410156 38.957031 "/>
<path style=" stroke:none;fill-rule:nonzero;fill:rgb(32.941176%,61.568627%,77.254902%);fill-opacity:1;" d="M 54.792969 37.566406 C 52.636719 37.566406 52.042969 35.183594 52.042969 33.210938 C 52.042969 31.34375 52.722656 29.125 54.792969 29.125 C 56.910156 29.125 57.5625 31.34375 57.5625 33.210938 C 57.5625 35.183594 56.996094 37.566406 54.792969 37.566406 Z M 54.792969 39.226562 C 58.359375 39.226562 60.769531 36.691406 60.769531 33.210938 C 60.769531 29.574219 57.859375 27.460938 54.792969 27.460938 C 51.746094 27.460938 48.839844 29.574219 48.839844 33.210938 C 48.839844 36.691406 51.246094 39.226562 54.792969 39.226562 Z M 54.792969 39.226562 "/>
<path style=" stroke:none;fill-rule:nonzero;fill:rgb(32.941176%,61.568627%,77.254902%);fill-opacity:1;" d="M 65.199219 29.054688 C 66.222656 27.980469 67.652344 27.460938 69.082031 27.460938 C 71.742188 27.460938 73.011719 28.898438 73.011719 31.726562 L 73.011719 38.957031 L 70.128906 38.957031 L 70.128906 32.066406 C 70.128906 30.492188 69.425781 29.464844 67.859375 29.464844 C 66.382812 29.464844 65.21875 30.421875 65.21875 32.265625 L 65.21875 38.957031 L 62.335938 38.957031 L 62.335938 27.734375 L 65.199219 27.734375 Z M 65.199219 29.054688 "/>
<path style=" stroke:none;fill-rule:nonzero;fill:rgb(32.941176%,61.568627%,77.254902%);fill-opacity:1;" d="M 15.914062 37.566406 C 13.753906 37.566406 13.164062 35.183594 13.164062 33.210938 C 13.164062 31.34375 13.84375 29.125 15.914062 29.125 C 18.023438 29.125 18.683594 31.34375 18.683594 33.210938 C 18.683594 35.183594 18.113281 37.566406 15.914062 37.566406 Z M 15.914062 39.226562 C 19.476562 39.226562 21.886719 36.691406 21.886719 33.210938 C 21.886719 29.574219 18.980469 27.460938 15.914062 27.460938 C 12.863281 27.460938 9.960938 29.574219 9.960938 33.210938 C 9.960938 36.691406 12.367188 39.226562 15.914062 39.226562 Z M 15.914062 39.226562 "/>
</g>
</svg>
